<mxfile host="Electron" agent="Mozilla/5.0 (Macintosh; Intel Mac OS X 10_15_7) AppleWebKit/537.36 (KHTML, like Gecko) draw.io/26.2.15 Chrome/134.0.6998.205 Electron/35.2.1 Safari/537.36" version="26.2.15">
  <diagram name="Page-1" id="tkqT64Fa1Iadw7DtF-jP">
    <mxGraphModel dx="1234" dy="898" grid="1" gridSize="10" guides="1" tooltips="1" connect="1" arrows="1" fold="1" page="1" pageScale="1" pageWidth="1169" pageHeight="827" math="0" shadow="0">
      <root>
        <mxCell id="0" />
        <mxCell id="1" parent="0" />
        <mxCell id="hWOuJit7TbWxn14ip4OH-3" style="edgeStyle=orthogonalEdgeStyle;rounded=0;orthogonalLoop=1;jettySize=auto;html=1;exitX=1;exitY=0.5;exitDx=0;exitDy=0;entryX=0;entryY=0.5;entryDx=0;entryDy=0;sketch=1;curveFitting=1;jiggle=2;" parent="1" source="J1RcsDlZKyNho1X2fuFZ-2" target="J1RcsDlZKyNho1X2fuFZ-5" edge="1">
          <mxGeometry relative="1" as="geometry" />
        </mxCell>
        <mxCell id="J1RcsDlZKyNho1X2fuFZ-2" value="Syscall is made" style="rounded=0;whiteSpace=wrap;html=1;labelBackgroundColor=none;sketch=1;curveFitting=1;jiggle=2;fillColor=#f8cecc;strokeColor=#b85450;fontSize=17;" parent="1" vertex="1">
          <mxGeometry y="205" width="120" height="60" as="geometry" />
        </mxCell>
        <mxCell id="J1RcsDlZKyNho1X2fuFZ-39" value="" style="edgeStyle=orthogonalEdgeStyle;rounded=0;hachureGap=4;orthogonalLoop=1;jettySize=auto;html=1;fontFamily=Architects Daughter;fontSource=https%3A%2F%2Ffonts.googleapis.com%2Fcss%3Ffamily%3DArchitects%2BDaughter;strokeColor=none;sketch=1;curveFitting=1;jiggle=2;opacity=0;fontSize=17;" parent="1" source="J1RcsDlZKyNho1X2fuFZ-11" target="J1RcsDlZKyNho1X2fuFZ-38" edge="1">
          <mxGeometry relative="1" as="geometry" />
        </mxCell>
        <mxCell id="hWOuJit7TbWxn14ip4OH-4" style="edgeStyle=orthogonalEdgeStyle;rounded=0;orthogonalLoop=1;jettySize=auto;html=1;exitX=1;exitY=0.5;exitDx=0;exitDy=0;sketch=1;curveFitting=1;jiggle=2;" parent="1" source="J1RcsDlZKyNho1X2fuFZ-5" target="J1RcsDlZKyNho1X2fuFZ-8" edge="1">
          <mxGeometry relative="1" as="geometry" />
        </mxCell>
        <mxCell id="hWOuJit7TbWxn14ip4OH-11" style="edgeStyle=orthogonalEdgeStyle;rounded=0;orthogonalLoop=1;jettySize=auto;html=1;exitX=0.5;exitY=0;exitDx=0;exitDy=0;entryX=0.5;entryY=1;entryDx=0;entryDy=0;sketch=1;curveFitting=1;jiggle=2;" parent="1" source="J1RcsDlZKyNho1X2fuFZ-5" target="J1RcsDlZKyNho1X2fuFZ-25" edge="1">
          <mxGeometry relative="1" as="geometry" />
        </mxCell>
        <mxCell id="J1RcsDlZKyNho1X2fuFZ-5" value="PID in follow map" style="rhombus;whiteSpace=wrap;html=1;rounded=0;labelBackgroundColor=none;sketch=1;curveFitting=1;jiggle=2;fillColor=#fff2cc;strokeColor=#d6b656;fontSize=17;" parent="1" vertex="1">
          <mxGeometry x="160" y="200" width="120" height="70" as="geometry" />
        </mxCell>
        <mxCell id="hWOuJit7TbWxn14ip4OH-7" style="edgeStyle=orthogonalEdgeStyle;rounded=0;orthogonalLoop=1;jettySize=auto;html=1;exitX=1;exitY=0.5;exitDx=0;exitDy=0;entryX=0;entryY=0.5;entryDx=0;entryDy=0;sketch=1;curveFitting=1;jiggle=2;" parent="1" source="J1RcsDlZKyNho1X2fuFZ-17" target="J1RcsDlZKyNho1X2fuFZ-19" edge="1">
          <mxGeometry relative="1" as="geometry" />
        </mxCell>
        <mxCell id="J1RcsDlZKyNho1X2fuFZ-17" value="Retrieve associated whitelist" style="whiteSpace=wrap;html=1;rounded=0;labelBackgroundColor=none;sketch=1;curveFitting=1;jiggle=2;fillColor=#e1d5e7;strokeColor=#9673a6;fontSize=17;" parent="1" vertex="1">
          <mxGeometry x="640" y="205" width="120" height="60" as="geometry" />
        </mxCell>
        <mxCell id="hWOuJit7TbWxn14ip4OH-9" style="edgeStyle=orthogonalEdgeStyle;rounded=0;orthogonalLoop=1;jettySize=auto;html=1;entryX=0;entryY=0.5;entryDx=0;entryDy=0;sketch=1;curveFitting=1;jiggle=2;" parent="1" source="J1RcsDlZKyNho1X2fuFZ-19" target="J1RcsDlZKyNho1X2fuFZ-22" edge="1">
          <mxGeometry relative="1" as="geometry" />
        </mxCell>
        <mxCell id="0LeRUmsSPWUeUl92eG1U-1" style="edgeStyle=orthogonalEdgeStyle;rounded=0;sketch=1;hachureGap=4;jiggle=2;curveFitting=1;orthogonalLoop=1;jettySize=auto;html=1;exitX=0.5;exitY=0;exitDx=0;exitDy=0;entryX=0.5;entryY=1;entryDx=0;entryDy=0;fontFamily=Architects Daughter;fontSource=https%3A%2F%2Ffonts.googleapis.com%2Fcss%3Ffamily%3DArchitects%2BDaughter;" edge="1" parent="1" source="J1RcsDlZKyNho1X2fuFZ-19" target="J1RcsDlZKyNho1X2fuFZ-33">
          <mxGeometry relative="1" as="geometry" />
        </mxCell>
        <mxCell id="J1RcsDlZKyNho1X2fuFZ-19" value="Syscall in&amp;nbsp;&lt;div&gt;whitelist?&lt;/div&gt;" style="rhombus;whiteSpace=wrap;html=1;rounded=0;labelBackgroundColor=none;sketch=1;curveFitting=1;jiggle=2;fillColor=#fff2cc;strokeColor=#d6b656;fontSize=17;" parent="1" vertex="1">
          <mxGeometry x="800" y="195" width="120" height="80" as="geometry" />
        </mxCell>
        <mxCell id="0LeRUmsSPWUeUl92eG1U-8" style="edgeStyle=orthogonalEdgeStyle;rounded=0;sketch=1;hachureGap=4;jiggle=2;curveFitting=1;orthogonalLoop=1;jettySize=auto;html=1;exitX=0.5;exitY=0;exitDx=0;exitDy=0;entryX=1;entryY=0.5;entryDx=0;entryDy=0;fontFamily=Architects Daughter;fontSource=https%3A%2F%2Ffonts.googleapis.com%2Fcss%3Ffamily%3DArchitects%2BDaughter;" edge="1" parent="1" source="J1RcsDlZKyNho1X2fuFZ-22" target="J1RcsDlZKyNho1X2fuFZ-33">
          <mxGeometry relative="1" as="geometry" />
        </mxCell>
        <mxCell id="J1RcsDlZKyNho1X2fuFZ-22" value="Intervene" style="whiteSpace=wrap;html=1;rounded=0;labelBackgroundColor=none;sketch=1;curveFitting=1;jiggle=2;fillColor=#e1d5e7;strokeColor=#9673a6;fontSize=17;" parent="1" vertex="1">
          <mxGeometry x="960" y="205" width="120" height="60" as="geometry" />
        </mxCell>
        <mxCell id="hWOuJit7TbWxn14ip4OH-12" style="edgeStyle=orthogonalEdgeStyle;rounded=0;orthogonalLoop=1;jettySize=auto;html=1;exitX=1;exitY=0.5;exitDx=0;exitDy=0;entryX=0;entryY=0.5;entryDx=0;entryDy=0;sketch=1;curveFitting=1;jiggle=2;" parent="1" source="J1RcsDlZKyNho1X2fuFZ-25" target="J1RcsDlZKyNho1X2fuFZ-27" edge="1">
          <mxGeometry relative="1" as="geometry" />
        </mxCell>
        <mxCell id="hWOuJit7TbWxn14ip4OH-14" style="edgeStyle=orthogonalEdgeStyle;rounded=0;orthogonalLoop=1;jettySize=auto;html=1;exitX=0.5;exitY=0;exitDx=0;exitDy=0;entryX=0.5;entryY=0;entryDx=0;entryDy=0;sketch=1;curveFitting=1;jiggle=2;" parent="1" source="J1RcsDlZKyNho1X2fuFZ-25" target="J1RcsDlZKyNho1X2fuFZ-33" edge="1">
          <mxGeometry relative="1" as="geometry" />
        </mxCell>
        <mxCell id="J1RcsDlZKyNho1X2fuFZ-25" value="PPID in follow map" style="rhombus;whiteSpace=wrap;html=1;rounded=0;labelBackgroundColor=none;sketch=1;curveFitting=1;jiggle=2;fillColor=#fff2cc;strokeColor=#d6b656;fontSize=17;" parent="1" vertex="1">
          <mxGeometry x="160" y="85" width="120" height="70" as="geometry" />
        </mxCell>
        <mxCell id="hWOuJit7TbWxn14ip4OH-13" style="edgeStyle=orthogonalEdgeStyle;rounded=0;orthogonalLoop=1;jettySize=auto;html=1;exitX=0.5;exitY=1;exitDx=0;exitDy=0;entryX=0.5;entryY=0;entryDx=0;entryDy=0;sketch=1;curveFitting=1;jiggle=2;" parent="1" source="J1RcsDlZKyNho1X2fuFZ-27" target="J1RcsDlZKyNho1X2fuFZ-8" edge="1">
          <mxGeometry relative="1" as="geometry" />
        </mxCell>
        <mxCell id="J1RcsDlZKyNho1X2fuFZ-27" value="Add PID to&lt;div&gt;follow map&lt;/div&gt;" style="whiteSpace=wrap;html=1;rounded=0;labelBackgroundColor=none;sketch=1;curveFitting=1;jiggle=2;fillColor=#e1d5e7;strokeColor=#9673a6;fontSize=17;" parent="1" vertex="1">
          <mxGeometry x="320" y="90" width="120" height="60" as="geometry" />
        </mxCell>
        <mxCell id="J1RcsDlZKyNho1X2fuFZ-33" value="Exit with Code 0" style="whiteSpace=wrap;html=1;rounded=0;labelBackgroundColor=none;sketch=1;curveFitting=1;jiggle=2;fillColor=#dae8fc;strokeColor=#6c8ebf;fontSize=17;" parent="1" vertex="1">
          <mxGeometry x="800" y="90" width="120" height="60" as="geometry" />
        </mxCell>
        <mxCell id="J1RcsDlZKyNho1X2fuFZ-38" value="" style="rhombus;whiteSpace=wrap;html=1;fillColor=#fff2cc;strokeColor=none;rounded=0;labelBackgroundColor=none;sketch=1;curveFitting=1;jiggle=2;opacity=0;fontSize=17;" parent="1" vertex="1">
          <mxGeometry x="650" y="60" width="140" height="80" as="geometry" />
        </mxCell>
        <mxCell id="hWOuJit7TbWxn14ip4OH-1" value="" style="edgeStyle=orthogonalEdgeStyle;rounded=0;hachureGap=4;orthogonalLoop=1;jettySize=auto;html=1;fontFamily=Architects Daughter;fontSource=https%3A%2F%2Ffonts.googleapis.com%2Fcss%3Ffamily%3DArchitects%2BDaughter;strokeColor=none;sketch=1;curveFitting=1;jiggle=2;opacity=0;fontSize=17;" parent="1" source="J1RcsDlZKyNho1X2fuFZ-5" target="J1RcsDlZKyNho1X2fuFZ-8" edge="1">
          <mxGeometry relative="1" as="geometry">
            <mxPoint x="300" y="235" as="sourcePoint" />
            <mxPoint x="720" y="140" as="targetPoint" />
          </mxGeometry>
        </mxCell>
        <mxCell id="hWOuJit7TbWxn14ip4OH-5" style="edgeStyle=orthogonalEdgeStyle;rounded=0;orthogonalLoop=1;jettySize=auto;html=1;exitX=1;exitY=0.5;exitDx=0;exitDy=0;entryX=0;entryY=0.5;entryDx=0;entryDy=0;sketch=1;curveFitting=1;jiggle=2;" parent="1" source="J1RcsDlZKyNho1X2fuFZ-8" target="J1RcsDlZKyNho1X2fuFZ-11" edge="1">
          <mxGeometry relative="1" as="geometry" />
        </mxCell>
        <mxCell id="J1RcsDlZKyNho1X2fuFZ-8" value="Find Syscall&lt;div&gt;Invocation Site&lt;/div&gt;" style="whiteSpace=wrap;html=1;rounded=0;labelBackgroundColor=none;sketch=1;curveFitting=1;jiggle=2;fillColor=#e1d5e7;strokeColor=#9673a6;fontSize=17;" parent="1" vertex="1">
          <mxGeometry x="320" y="205" width="120" height="60" as="geometry" />
        </mxCell>
        <mxCell id="hWOuJit7TbWxn14ip4OH-2" value="" style="edgeStyle=orthogonalEdgeStyle;rounded=0;hachureGap=4;orthogonalLoop=1;jettySize=auto;html=1;fontFamily=Architects Daughter;fontSource=https%3A%2F%2Ffonts.googleapis.com%2Fcss%3Ffamily%3DArchitects%2BDaughter;strokeColor=none;sketch=1;curveFitting=1;jiggle=2;opacity=0;fontSize=17;" parent="1" source="J1RcsDlZKyNho1X2fuFZ-8" target="J1RcsDlZKyNho1X2fuFZ-11" edge="1">
          <mxGeometry relative="1" as="geometry">
            <mxPoint x="440" y="235" as="sourcePoint" />
            <mxPoint x="720" y="140" as="targetPoint" />
          </mxGeometry>
        </mxCell>
        <mxCell id="hWOuJit7TbWxn14ip4OH-6" style="edgeStyle=orthogonalEdgeStyle;rounded=0;orthogonalLoop=1;jettySize=auto;html=1;exitX=1;exitY=0.5;exitDx=0;exitDy=0;entryX=0;entryY=0.5;entryDx=0;entryDy=0;sketch=1;curveFitting=1;jiggle=2;" parent="1" source="J1RcsDlZKyNho1X2fuFZ-11" target="J1RcsDlZKyNho1X2fuFZ-17" edge="1">
          <mxGeometry relative="1" as="geometry" />
        </mxCell>
        <mxCell id="J1RcsDlZKyNho1X2fuFZ-11" value="Associate site&lt;div&gt;with file backed&lt;/div&gt;&lt;div&gt;memory region&lt;/div&gt;" style="whiteSpace=wrap;html=1;rounded=0;labelBackgroundColor=none;sketch=1;curveFitting=1;jiggle=2;fillColor=#e1d5e7;strokeColor=#9673a6;fontSize=17;" parent="1" vertex="1">
          <mxGeometry x="480" y="205" width="120" height="60" as="geometry" />
        </mxCell>
        <mxCell id="hWOuJit7TbWxn14ip4OH-15" value="" style="verticalLabelPosition=bottom;verticalAlign=top;html=1;shape=mxgraph.basic.tick;hachureGap=4;fontFamily=Architects Daughter;fontSource=https%3A%2F%2Ffonts.googleapis.com%2Fcss%3Ffamily%3DArchitects%2BDaughter;fillColor=#60a917;fontColor=#ffffff;strokeColor=#2D7600;" parent="1" vertex="1">
          <mxGeometry x="284.25" y="204" width="21.25" height="25" as="geometry" />
        </mxCell>
        <mxCell id="hWOuJit7TbWxn14ip4OH-17" value="" style="verticalLabelPosition=bottom;verticalAlign=top;html=1;shape=mxgraph.basic.tick;hachureGap=4;fontFamily=Architects Daughter;fontSource=https%3A%2F%2Ffonts.googleapis.com%2Fcss%3Ffamily%3DArchitects%2BDaughter;fillColor=#60a917;fontColor=#ffffff;strokeColor=#2D7600;" parent="1" vertex="1">
          <mxGeometry x="290" y="90" width="21.25" height="25" as="geometry" />
        </mxCell>
        <mxCell id="hWOuJit7TbWxn14ip4OH-18" value="" style="shape=cross;whiteSpace=wrap;html=1;hachureGap=4;fontFamily=Architects Daughter;fontSource=https%3A%2F%2Ffonts.googleapis.com%2Fcss%3Ffamily%3DArchitects%2BDaughter;rotation=45;fillColor=#e51400;fontColor=#ffffff;strokeColor=#B20000;" parent="1" vertex="1">
          <mxGeometry x="190" y="169" width="26" height="26" as="geometry" />
        </mxCell>
        <mxCell id="hWOuJit7TbWxn14ip4OH-19" value="" style="shape=cross;whiteSpace=wrap;html=1;hachureGap=4;fontFamily=Architects Daughter;fontSource=https%3A%2F%2Ffonts.googleapis.com%2Fcss%3Ffamily%3DArchitects%2BDaughter;rotation=45;fillColor=#e51400;fontColor=#ffffff;strokeColor=#B20000;" parent="1" vertex="1">
          <mxGeometry x="190" y="50" width="26" height="26" as="geometry" />
        </mxCell>
        <mxCell id="0LeRUmsSPWUeUl92eG1U-2" value="" style="verticalLabelPosition=bottom;verticalAlign=top;html=1;shape=mxgraph.basic.tick;hachureGap=4;fontFamily=Architects Daughter;fontSource=https%3A%2F%2Ffonts.googleapis.com%2Fcss%3Ffamily%3DArchitects%2BDaughter;fillColor=#60a917;fontColor=#ffffff;strokeColor=#2D7600;" vertex="1" parent="1">
          <mxGeometry x="840" y="160" width="21.25" height="25" as="geometry" />
        </mxCell>
        <mxCell id="0LeRUmsSPWUeUl92eG1U-3" value="" style="shape=cross;whiteSpace=wrap;html=1;hachureGap=4;fontFamily=Architects Daughter;fontSource=https%3A%2F%2Ffonts.googleapis.com%2Fcss%3Ffamily%3DArchitects%2BDaughter;rotation=45;fillColor=#e51400;fontColor=#ffffff;strokeColor=#B20000;" vertex="1" parent="1">
          <mxGeometry x="920" y="205" width="26" height="26" as="geometry" />
        </mxCell>
      </root>
    </mxGraphModel>
  </diagram>
</mxfile>
